<?xml version="1.0" encoding="UTF-8"?>
<svg xmlns="http://www.w3.org/2000/svg" xmlns:xlink="http://www.w3.org/1999/xlink" width="375pt" zoomAndPan="magnify" viewBox="0 0 375 374.999991" height="374.999991pt" preserveAspectRatio="xMidYMid meet" version="1.2">
    <defs>
        <g />
    </defs>
    <g xml:id="surface1" id="surface1">
        <path style=" stroke:none;fill-rule:nonzero;fill:rgb(0%,0%,0%);fill-opacity:1;" d="M 0 0 L 0 375 L 375 375 L 375 0 Z M 354.726562 354.726562 L 19.851562 354.726562 L 19.851562 19.851562 L 354.726562 19.851562 Z M 354.726562 354.726562 " />
        <g style="fill:rgb(0%,0%,0%);fill-opacity:1;">
            <g transform="translate(74.999091, 237.927412)">
                <path style="stroke:none;" d="M 83.421875 -34.972656 C 79.183594 -25.890625 68.890625 -19.683594 58.289062 -19.683594 C 41.636719 -19.683594 28.3125 -33.914062 28.3125 -51.476562 C 28.3125 -68.890625 41.636719 -83.273438 58.289062 -83.273438 C 68.738281 -83.273438 79.03125 -77.519531 83.273438 -68.285156 L 108.558594 -68.285156 C 101.59375 -89.328125 81.757812 -104.46875 58.289062 -104.46875 C 29.070312 -104.46875 5.300781 -80.699219 5.300781 -51.476562 C 5.300781 -22.257812 29.070312 1.515625 58.289062 1.515625 C 81.757812 1.515625 101.742188 -13.777344 108.707031 -34.972656 Z M 83.421875 -34.972656 " />
            </g>
        </g>
        <g style="fill:rgb(0%,0%,0%);fill-opacity:1;">
            <g transform="translate(187.488516, 237.927412)">
                <path style="stroke:none;" d="M 83.421875 -34.972656 C 79.183594 -25.890625 68.890625 -19.683594 58.289062 -19.683594 C 41.636719 -19.683594 28.3125 -33.914062 28.3125 -51.476562 C 28.3125 -68.890625 41.636719 -83.273438 58.289062 -83.273438 C 68.738281 -83.273438 79.03125 -77.519531 83.273438 -68.285156 L 108.558594 -68.285156 C 101.59375 -89.328125 81.757812 -104.46875 58.289062 -104.46875 C 29.070312 -104.46875 5.300781 -80.699219 5.300781 -51.476562 C 5.300781 -22.257812 29.070312 1.515625 58.289062 1.515625 C 81.757812 1.515625 101.742188 -13.777344 108.707031 -34.972656 Z M 83.421875 -34.972656 " />
            </g>
        </g>
    </g>
</svg>