<?xml version="1.0" encoding="UTF-8"?>
<svg xmlns="http://www.w3.org/2000/svg" xmlns:xlink="http://www.w3.org/1999/xlink" width="311.25pt" zoomAndPan="magnify" viewBox="0 0 311.25 179.999997" height="179.999997pt" preserveAspectRatio="xMidYMid meet" version="1.2">
    <defs>
        <g />
        <clipPath xml:id="clip1" id="clip1">
            <path d="M 0 0.214844 L 310.5 0.214844 L 310.5 179.78125 L 0 179.78125 Z M 0 0.214844 " />
        </clipPath>
    </defs>
    <g xml:id="surface1" id="surface1">
        <g clip-rule="nonzero" clip-path="url(#clip1)">
            <path style=" stroke:none;fill-rule:nonzero;fill:rgb(0%,0%,0%);fill-opacity:1;" d="M 0.00390625 0.214844 L 0.00390625 179.785156 L 310.5 179.785156 L 310.5 0.214844 Z M 299.824219 169.097656 L 10.457031 169.097656 L 10.457031 10.679688 L 299.824219 10.679688 Z M 299.824219 169.097656 " />
        </g>
        <g style="fill:rgb(0%,0%,0%);fill-opacity:1;">
            <g transform="translate(19.080175, 70.417725)">
                <path style="stroke:none;" d="M 34.023438 -14.265625 C 32.292969 -10.558594 28.09375 -8.027344 23.773438 -8.027344 C 16.980469 -8.027344 11.546875 -13.832031 11.546875 -20.996094 C 11.546875 -28.09375 16.980469 -33.960938 23.773438 -33.960938 C 28.035156 -33.960938 32.234375 -31.617188 33.960938 -27.847656 L 44.273438 -27.847656 C 41.433594 -36.433594 33.34375 -42.605469 23.773438 -42.605469 C 11.855469 -42.605469 2.160156 -32.910156 2.160156 -20.996094 C 2.160156 -9.078125 11.855469 0.617188 23.773438 0.617188 C 33.34375 0.617188 41.496094 -5.617188 44.335938 -14.265625 Z M 34.023438 -14.265625 " />
            </g>
        </g>
        <g style="fill:rgb(0%,0%,0%);fill-opacity:1;">
            <g transform="translate(64.956199, 70.417725)">
                <path style="stroke:none;" d="M 25.007812 -13.585938 C 25.007812 -10.003906 22.230469 -6.792969 18.523438 -6.792969 C 14.820312 -6.792969 12.039062 -10.003906 12.039062 -13.585938 C 12.039062 -17.167969 14.820312 -20.378906 18.523438 -20.378906 C 22.230469 -20.378906 25.007812 -17.167969 25.007812 -13.585938 Z M 34.269531 -27.167969 L 25.007812 -27.167969 L 25.007812 -23.898438 C 22.601562 -26.859375 19.140625 -27.847656 15.683594 -27.847656 C 7.964844 -27.847656 2.160156 -21.117188 2.160156 -13.585938 C 2.160156 -6.050781 7.964844 0.617188 15.683594 0.617188 C 19.140625 0.617188 23.15625 -0.492188 25.007812 -3.273438 L 25.007812 0 L 34.269531 0 Z M 34.269531 -27.167969 " />
            </g>
        </g>
        <g style="fill:rgb(0%,0%,0%);fill-opacity:1;">
            <g transform="translate(102.928953, 70.417725)">
                <path style="stroke:none;" d="M 31.183594 -13.832031 C 31.183594 -16.917969 32.601562 -20.378906 36.183594 -20.378906 C 39.273438 -20.378906 40.136719 -17.722656 40.136719 -15.066406 L 40.136719 0 L 49.398438 0 L 49.398438 -15.066406 C 49.398438 -22.105469 46.003906 -27.847656 38.902344 -27.847656 C 34.640625 -27.847656 31.617188 -26.613281 28.960938 -23.21875 C 27.046875 -26.304688 23.957031 -27.847656 20.5 -27.847656 C 17.476562 -27.847656 14.820312 -26.242188 12.96875 -23.898438 L 12.96875 -27.230469 L 3.703125 -27.230469 L 3.703125 0 L 12.96875 0 L 12.96875 -13.585938 C 12.96875 -16.300781 14.820312 -20.378906 17.96875 -20.378906 C 21.054688 -20.378906 21.921875 -17.722656 21.921875 -15.066406 L 21.921875 0 L 31.183594 0 Z M 31.183594 -13.832031 " />
            </g>
        </g>
        <g style="fill:rgb(0%,0%,0%);fill-opacity:1;">
            <g transform="translate(155.102898, 70.417725)">
                <path style="stroke:none;" d="M 12.101562 -16.855469 C 12.101562 -16.855469 12.410156 -21.921875 18.214844 -21.921875 C 23.835938 -21.921875 24.265625 -16.855469 24.265625 -16.855469 Z M 33.160156 -14.203125 C 33.160156 -22.910156 26.304688 -27.847656 18.03125 -27.847656 C 8.890625 -27.847656 2.160156 -22.105469 2.160156 -13.585938 C 2.160156 -4.941406 8.644531 0.617188 18.03125 0.617188 C 25.253906 0.617188 31.058594 -2.964844 32.664062 -10.125 L 23.21875 -10.125 C 23.15625 -8.152344 21.117188 -5.988281 17.84375 -5.988281 C 14.203125 -5.988281 11.980469 -9.324219 11.980469 -12.472656 L 33.097656 -12.472656 C 33.097656 -13.027344 33.160156 -13.644531 33.160156 -14.203125 Z M 33.160156 -14.203125 " />
            </g>
        </g>
        <g style="fill:rgb(0%,0%,0%);fill-opacity:1;">
            <g transform="translate(190.420645, 70.417725)">
                <path style="stroke:none;" d="M 19.082031 -20.378906 C 20.5 -20.378906 21.859375 -19.945312 22.785156 -18.832031 L 22.910156 -18.832031 L 22.910156 -27.230469 C 22.167969 -27.601562 20.933594 -27.847656 20.128906 -27.847656 C 16.734375 -27.847656 14.386719 -25.933594 12.96875 -23.898438 L 12.96875 -27.230469 L 3.703125 -27.230469 L 3.703125 0 L 12.96875 0 L 12.96875 -13.585938 C 12.96875 -16.855469 15.621094 -20.378906 19.082031 -20.378906 Z M 19.082031 -20.378906 " />
            </g>
        </g>
        <g style="fill:rgb(0%,0%,0%);fill-opacity:1;">
            <g transform="translate(213.945233, 70.417725)">
                <path style="stroke:none;" d="M 17.722656 -6.421875 C 12.71875 -6.421875 11.363281 -10.066406 11.363281 -13.523438 C 11.363281 -16.917969 12.84375 -20.5625 17.722656 -20.5625 C 22.539062 -20.5625 24.019531 -16.917969 24.019531 -13.523438 C 24.019531 -10.066406 22.660156 -6.421875 17.722656 -6.421875 Z M 17.722656 -27.785156 C 9.199219 -27.785156 2.160156 -22.105469 2.160156 -13.585938 C 2.160156 -4.878906 9.015625 0.554688 17.722656 0.554688 C 26.367188 0.554688 33.222656 -4.878906 33.222656 -13.585938 C 33.222656 -22.105469 26.179688 -27.785156 17.722656 -27.785156 Z M 17.722656 -27.785156 " />
            </g>
        </g>
        <g style="fill:rgb(0%,0%,0%);fill-opacity:1;">
            <g transform="translate(249.324727, 70.417725)">
                <path style="stroke:none;" d="M 31.554688 -15.4375 C 31.554688 -22.847656 28.589844 -27.847656 21.304688 -27.847656 C 17.722656 -27.847656 14.820312 -26.242188 12.96875 -23.898438 L 12.96875 -27.230469 L 3.703125 -27.230469 L 3.703125 0 L 12.96875 0 L 12.96875 -13.585938 C 12.96875 -17.289062 15.25 -20.378906 18.152344 -20.378906 C 21.054688 -20.378906 22.292969 -18.648438 22.292969 -15.4375 L 22.292969 0 L 31.554688 0 Z M 31.554688 -15.4375 " />
            </g>
        </g>
        <g style="fill:rgb(0%,0%,0%);fill-opacity:1;">
            <g transform="translate(19.080175, 150.86311)">
                <path style="stroke:none;" d="M 34.023438 -14.265625 C 32.292969 -10.558594 28.09375 -8.027344 23.773438 -8.027344 C 16.980469 -8.027344 11.546875 -13.832031 11.546875 -20.996094 C 11.546875 -28.09375 16.980469 -33.960938 23.773438 -33.960938 C 28.035156 -33.960938 32.234375 -31.617188 33.960938 -27.847656 L 44.273438 -27.847656 C 41.433594 -36.433594 33.34375 -42.605469 23.773438 -42.605469 C 11.855469 -42.605469 2.160156 -32.910156 2.160156 -20.996094 C 2.160156 -9.078125 11.855469 0.617188 23.773438 0.617188 C 33.34375 0.617188 41.496094 -5.617188 44.335938 -14.265625 Z M 34.023438 -14.265625 " />
            </g>
        </g>
        <g style="fill:rgb(0%,0%,0%);fill-opacity:1;">
            <g transform="translate(64.956199, 150.86311)">
                <path style="stroke:none;" d="M 31.554688 -15.4375 C 31.554688 -22.847656 28.589844 -27.847656 21.304688 -27.847656 C 17.722656 -27.847656 14.820312 -26.242188 12.96875 -23.898438 L 12.96875 -46.3125 L 3.703125 -46.3125 L 3.703125 0 L 12.96875 0 L 12.96875 -13.585938 C 12.96875 -17.289062 15.25 -20.378906 18.152344 -20.378906 C 21.054688 -20.378906 22.292969 -18.648438 22.292969 -15.4375 L 22.292969 0 L 31.554688 0 Z M 31.554688 -15.4375 " />
            </g>
        </g>
        <g style="fill:rgb(0%,0%,0%);fill-opacity:1;">
            <g transform="translate(99.286037, 150.86311)">
                <path style="stroke:none;" d="M 17.722656 -6.421875 C 12.71875 -6.421875 11.363281 -10.066406 11.363281 -13.523438 C 11.363281 -16.917969 12.84375 -20.5625 17.722656 -20.5625 C 22.539062 -20.5625 24.019531 -16.917969 24.019531 -13.523438 C 24.019531 -10.066406 22.660156 -6.421875 17.722656 -6.421875 Z M 17.722656 -27.785156 C 9.199219 -27.785156 2.160156 -22.105469 2.160156 -13.585938 C 2.160156 -4.878906 9.015625 0.554688 17.722656 0.554688 C 26.367188 0.554688 33.222656 -4.878906 33.222656 -13.585938 C 33.222656 -22.105469 26.179688 -27.785156 17.722656 -27.785156 Z M 17.722656 -27.785156 " />
            </g>
        </g>
        <g style="fill:rgb(0%,0%,0%);fill-opacity:1;">
            <g transform="translate(134.665531, 150.86311)">
                <path style="stroke:none;" d="M 3.210938 -36.554688 C 3.210938 -33.589844 5.617188 -31.121094 8.644531 -31.121094 C 11.609375 -31.121094 14.078125 -33.589844 14.078125 -36.554688 C 14.078125 -39.582031 11.609375 -41.988281 8.644531 -41.988281 C 5.617188 -41.988281 3.210938 -39.582031 3.210938 -36.554688 Z M 13.277344 0 L 13.277344 -27.230469 L 4.011719 -27.230469 L 4.011719 0 Z M 13.277344 0 " />
            </g>
        </g>
    </g>
</svg>